<svg xmlns="http://www.w3.org/2000/svg" viewBox="0 0 224 266" fill="none" width="80">
<path d="M53.25 158.25C20.1 145.51 22 121.83 20.73 96.65C20.0091 81.3317 22.3901 66.0256 27.73 51.65C19.95 26.53 24.73 10.18 27.19 4.23001C27.5631 3.39114 28.1368 2.65688 28.8605 2.09188C29.5842 1.52689 30.4357 1.14849 31.34 0.990007C47.34 -1.85999 72.24 14.65 72.24 14.65C72.24 14.65 82.72 6.99001 111.54 6.99001C140.36 6.99001 150.85 14.57 150.85 14.57C150.85 14.57 175.79 -1.90999 191.75 0.990007C192.669 1.15361 193.532 1.54382 194.262 2.12528C194.992 2.70674 195.565 3.46109 195.93 4.32001C198.39 10.32 203.17 26.62 195.39 51.74C200.73 66.1155 203.111 81.4217 202.39 96.74C201.11 121.92 203.02 145.6 169.87 158.34C138 170.47 85.08 170.47 53.25 158.25V158.25Z" fill="#DADBE2"></path>
<path d="M174.88 66.24C153.62 49.67 146.77 71.24 111.54 71.24C76.31 71.24 69.47 49.62 48.2 66.24C26.93 82.86 46.63 106.24 42.91 122.46C39.19 138.68 38.47 149.46 62.26 157.46C86.05 165.46 102.81 165.75 111.54 165.75C120.27 165.75 137.04 165.39 160.83 157.46C184.62 149.53 183.89 138.72 180.17 122.46C176.45 106.2 196.15 82.82 174.88 66.24Z" fill="#5B616C"></path>
<path d="M48.2 74.14C69.47 57.56 76.31 79.14 111.54 79.14C146.77 79.14 153.62 57.52 174.88 74.14C181.26 79.14 183.94 84.7 184.68 90.53C185.62 81.91 184.1 73.43 174.88 66.24C153.62 49.67 146.77 71.24 111.54 71.24C76.31 71.24 69.47 49.62 48.2 66.24C38.98 73.43 37.47 81.91 38.4 90.53C39.15 84.7 41.82 79.11 48.2 74.14V74.14Z" fill="#45515D"></path>
<path d="M111.54 8.57001C82.72 8.57001 72.24 16.16 72.24 16.16C71.9613 17.7585 71.0613 19.1817 69.7365 20.1186C68.4118 21.0555 66.77 21.4299 65.17 21.16H65.07C52.52 8.16 33.31 9.78001 33.31 9.78001C26.88 28.44 34.8 47.12 34.8 47.12C33.93 53.43 29.25 53.25 29.25 53.25C29.25 53.25 21 71.47 22.25 96.65C22.42 99.89 22.53 103.1 22.67 106.26C26.8 43.53 78.12 11.8 106.44 20.38C124.59 25.87 99 50.44 99 50.44C130.93 28.91 179.44 28.28 191.09 70.15C207.09 127.55 188.59 146.67 188.51 146.95C202.19 133.73 201.36 115.61 202.32 96.65C203.041 81.3317 200.66 66.0256 195.32 51.65C190.24 53.49 187.98 45.56 187.98 45.56C197.33 31.08 188.91 10.08 188.91 10.08C175.17 7.61001 157.36 20.35 157.36 20.35C150.31 22.2 150.78 16.12 150.78 16.12C150.78 16.12 140.36 8.57001 111.54 8.57001V8.57001Z" fill="#CACCD3"></path>
<path d="M35.21 131.3C32.5254 130.807 29.814 130.473 27.09 130.3C24.3869 130.122 21.6758 130.098 18.97 130.23C16.3057 130.369 13.6552 130.703 11.04 131.23C8.51717 131.782 6.06005 132.599 3.71 133.67H3.65C3.05194 133.945 2.36932 133.97 1.75233 133.741C1.13533 133.513 0.634498 133.048 0.359999 132.45C0.0854999 131.852 0.059824 131.169 0.288618 130.552C0.517413 129.935 0.981937 129.435 1.58 129.16L1.85 129.05C4.64852 128.158 7.5353 127.571 10.46 127.3C13.3032 127.1 16.1568 127.1 19 127.3C21.7948 127.508 24.5758 127.872 27.33 128.39C30.0725 128.902 32.7835 129.57 35.45 130.39C35.5079 130.408 35.5617 130.438 35.6081 130.477C35.6546 130.516 35.6929 130.564 35.7208 130.618C35.7487 130.671 35.7656 130.73 35.7706 130.791C35.7756 130.851 35.7686 130.912 35.75 130.97C35.7216 131.08 35.6515 131.175 35.5545 131.235C35.4576 131.295 35.3412 131.314 35.23 131.29L35.21 131.3Z" fill="#CACCD3"></path>
<path d="M34.88 136.49C32.1686 136.787 29.4772 137.244 26.82 137.86C24.1727 138.449 21.5617 139.19 19 140.08C16.485 140.97 14.0384 142.043 11.68 143.29C9.41368 144.528 7.28511 146.003 5.33 147.69V147.74C4.83272 148.182 4.18039 148.408 3.51651 148.368C2.85263 148.329 2.23159 148.027 1.79 147.53C1.34842 147.033 1.12246 146.38 1.16184 145.716C1.20123 145.053 1.50272 144.432 2 143.99C2.07124 143.919 2.15202 143.859 2.24 143.81C4.66845 142.163 7.27078 140.788 10 139.71C12.6616 138.69 15.3959 137.871 18.18 137.26C20.92 136.669 23.691 136.231 26.48 135.95C29.2536 135.66 32.0415 135.53 34.83 135.56C34.9521 135.58 35.0619 135.646 35.1364 135.745C35.211 135.843 35.2445 135.967 35.23 136.09C35.2158 136.191 35.1691 136.285 35.0969 136.357C35.0248 136.429 34.9311 136.476 34.83 136.49H34.88Z" fill="#CACCD3"></path>
<path d="M187.64 130.4C190.303 129.579 193.011 128.911 195.75 128.4C198.508 127.887 201.292 127.523 204.09 127.31C206.93 127.11 209.78 127.11 212.62 127.31C215.545 127.576 218.433 128.163 221.23 129.06C221.555 129.136 221.862 129.276 222.131 129.473C222.401 129.67 222.628 129.919 222.798 130.206C222.969 130.493 223.08 130.811 223.125 131.142C223.17 131.473 223.148 131.809 223.06 132.131C222.971 132.453 222.819 132.754 222.612 133.015C222.405 133.277 222.147 133.494 221.854 133.654C221.56 133.813 221.238 133.912 220.906 133.944C220.574 133.976 220.238 133.941 219.92 133.84L219.72 133.78L219.45 133.68H219.38C217.03 132.609 214.573 131.792 212.05 131.24C209.435 130.713 206.784 130.378 204.12 130.24C201.414 130.108 198.703 130.132 196 130.31C193.273 130.483 190.558 130.817 187.87 131.31C187.751 131.334 187.627 131.309 187.526 131.241C187.424 131.174 187.354 131.069 187.33 130.95C187.309 130.837 187.328 130.719 187.385 130.618C187.441 130.518 187.532 130.44 187.64 130.4V130.4Z" fill="#CACCD3"></path>
<path d="M188.23 135.56C191.019 135.53 193.806 135.66 196.58 135.95C199.369 136.231 202.14 136.669 204.88 137.26C207.664 137.871 210.398 138.69 213.06 139.71C215.79 140.791 218.392 142.169 220.82 143.82C221.094 143.999 221.33 144.229 221.514 144.499C221.699 144.769 221.829 145.072 221.896 145.392C221.963 145.712 221.967 146.042 221.907 146.364C221.847 146.685 221.724 146.991 221.545 147.265C221.366 147.539 221.136 147.775 220.866 147.959C220.596 148.144 220.293 148.274 219.973 148.341C219.653 148.408 219.323 148.412 219.001 148.352C218.68 148.292 218.374 148.169 218.1 147.99H218.03C217.952 147.939 217.879 147.882 217.81 147.82L217.74 147.76C215.788 146.073 213.663 144.598 211.4 143.36C209.042 142.113 206.595 141.04 204.08 140.15C201.518 139.27 198.911 138.529 196.27 137.93C193.613 137.314 190.921 136.857 188.21 136.56C188.088 136.54 187.978 136.474 187.904 136.375C187.829 136.277 187.796 136.153 187.81 136.03C187.824 135.929 187.871 135.835 187.943 135.763C188.015 135.691 188.109 135.644 188.21 135.63L188.23 135.56Z" fill="#CACCD3"></path>
<path d="M111.54 172.29C102.573 172.199 93.6211 171.531 84.74 170.29C84.4634 170.251 84.1817 170.276 83.9157 170.361C83.6498 170.446 83.4064 170.59 83.2037 170.782C83.001 170.974 82.8442 171.21 82.7449 171.471C82.6456 171.732 82.6063 172.012 82.63 172.29C83.63 184.1 89.24 236.63 111.54 236.63C133.84 236.63 139.48 184.1 140.46 172.29C140.499 171.801 140.343 171.317 140.027 170.942C139.71 170.568 139.258 170.333 138.77 170.29C138.627 170.275 138.483 170.275 138.34 170.29C129.459 171.531 120.507 172.199 111.54 172.29V172.29Z" fill="#45515D"></path>
<path d="M111.54 175.09C101.383 174.989 91.2436 174.211 81.19 172.76C81.0692 172.742 80.9459 172.747 80.8272 172.776C80.7085 172.806 80.5968 172.858 80.4983 172.93C80.3999 173.003 80.3167 173.094 80.2535 173.198C80.1903 173.303 80.1483 173.419 80.13 173.54C80.12 173.613 80.12 173.687 80.13 173.76C80.83 183.04 86.38 244.76 111.55 244.76C136.72 244.76 142.27 182.99 143 173.75C143.022 173.509 142.949 173.269 142.795 173.082C142.642 172.894 142.421 172.775 142.18 172.75H141.94C131.87 174.209 121.714 174.991 111.54 175.09V175.09Z" fill="#DADBE2"></path>
<path d="M141.9 172.76C131.843 174.211 121.701 174.989 111.54 175.09C101.383 174.989 91.2436 174.211 81.19 172.76C81.0692 172.742 80.9459 172.747 80.8272 172.776C80.7085 172.806 80.5968 172.858 80.4983 172.93C80.3999 173.003 80.3167 173.094 80.2535 173.198C80.1903 173.303 80.1483 173.419 80.13 173.54C80.12 173.613 80.12 173.687 80.13 173.76C80.29 175.88 80.71 180.76 81.55 187.02C91.88 180.55 123.1 176.53 130.91 189.97C138.72 203.41 106.45 252.91 94.4 232.28C98.74 239.73 104.34 244.81 111.55 244.81C136.72 244.81 142.28 183.04 142.97 173.81C142.992 173.569 142.919 173.329 142.765 173.142C142.612 172.954 142.391 172.835 142.15 172.81L141.9 172.76Z" fill="#CACCD3"></path>
<path d="M111.54 265.14C139.204 265.14 161.63 264.106 161.63 262.83C161.63 261.554 139.204 260.52 111.54 260.52C83.8761 260.52 61.45 261.554 61.45 262.83C61.45 264.106 83.8761 265.14 111.54 265.14Z" fill="#DADBE2"></path>
<path d="M105.28 129.05H112.32V136.09H105.28V129.05Z" fill="#64BCEA"></path>
<path d="M112.86 129.05H119.9V136.09H112.86V129.05Z" fill="#64BCEA"></path>
<path d="M86.35 112.2H93.39V119.24H86.35V112.2Z" fill="#64BCEA"></path>
<path d="M86.35 104.64H93.39V111.68H86.35V104.64Z" fill="#64BCEA"></path>
<path d="M57.16 112.2H64.2V119.24H57.16V112.2Z" fill="#64BCEA"></path>
<path d="M57.16 104.64H64.2V111.68H57.16V104.64Z" fill="#64BCEA"></path>
<path d="M79.32 97.08H86.36V104.12H79.32V97.08Z" fill="#64BCEA"></path>
<path d="M71.76 97.08H78.8V104.12H71.76V97.08Z" fill="#64BCEA"></path>
<path d="M64.2 97.08H71.24V104.12H64.2V97.08Z" fill="#64BCEA"></path>
<path d="M159.41 112.2H166.45V119.24H159.41V112.2Z" fill="#64BCEA"></path>
<path d="M159.41 104.64H166.45V111.68H159.41V104.64Z" fill="#64BCEA"></path>
<path d="M130.22 112.2H137.26V119.24H130.22V112.2Z" fill="#64BCEA"></path>
<path d="M130.22 104.64H137.26V111.68H130.22V104.64Z" fill="#64BCEA"></path>
<path d="M152.38 97.08H159.42V104.12H152.38V97.08Z" fill="#64BCEA"></path>
<path d="M144.82 97.08H151.86V104.12H144.82V97.08Z" fill="#64BCEA"></path>
<path d="M137.26 97.08H144.3V104.12H137.26V97.08Z" fill="#64BCEA"></path>
</svg>